<?xml version="1.0" encoding="utf-8"?>
<!-- Generator: Adobe Illustrator 28.0.0, SVG Export Plug-In . SVG Version: 6.00 Build 0)  -->
<svg version="1.1" id="Layer_1" xmlns="http://www.w3.org/2000/svg" xmlns:xlink="http://www.w3.org/1999/xlink" x="0px" y="0px"
	 viewBox="0 0 500 500" style="enable-background:new 0 0 500 500;" xml:space="preserve" width="96" height="96">
<style type="text/css">
	.st0{fill:#181717;}
	.st1{fill:#C6BDB0;}
	.st2{fill:#F8EFE0;}
	.st3{fill:#A09990;}
	.st4{fill:#FFFFFF;stroke:#000000;stroke-miterlimit:10;}
</style>
<circle class="st0" cx="250" cy="250" r="246.4"/>
<g>
	<path class="st1" d="M457.2,278.5c-1.3,7.8-3.2,14.7-5.7,20.7c-2.5,6-5.4,11.4-8.7,16c-0.1,2.6-0.2,5.3-0.3,8.2
		c-0.1,2.9-0.2,5.7-0.2,8.5s0,5.5,0,8.1c0,2.6,0.1,4.9,0.3,7l-28.4,2.8l-4.6-9.6c-7.5,2.7-15.2,4.5-22.9,5.4
		c-7.7,0.8-15.1,1.1-22,0.8c-14.5-0.7-27.8-3.4-39.7-8.1c-11.9-4.7-22.3-11.4-31.2-20.1s-16.1-19.5-21.8-32.2s-9.4-27.5-11.3-44.2
		c1.8,0.7,3.8,1.4,5.9,2.1c2.1,0.7,4.2,1.3,6.3,1.8c2.2-16.4,7.2-30.7,15-42.9c7.7-12.1,17.5-22.2,29.3-30s25.3-13.6,40.5-17.2
		s31.4-4.9,48.6-4.1c7.9,0.4,16.3,1.2,25.2,2.4c9,1.2,18.5,3,28.8,5.4c-2.7,7.3-4.8,14.6-6.3,22c-1.5,7.4-2.5,14.8-2.8,22.2
		c-0.4,7.8-0.1,15.6,0.8,23.2c-4.6-3.8-9.3-7-14-9.6c-4.7-2.6-9.3-4.8-13.8-6.4s-9-2.9-13.3-3.7c-4.4-0.8-8.5-1.3-12.5-1.5
		c-7.6-0.4-15.3,0.3-23.3,2c-8,1.7-15.6,4.3-22.8,7.9c-7.2,3.6-13.7,8.2-19.6,13.6s-10.4,11.8-13.7,19.1c3.4-0.3,6.5-0.8,9.6-1.3
		c3-0.6,6.1-1.2,9.1-2.1c-0.6,3.6-1,6.9-1.2,10c-0.4,8.1,0.7,15.3,3.2,21.4c2.5,6.1,6.1,11.3,10.8,15.5c4.7,4.2,10.3,7.4,16.8,9.6
		s13.7,3.6,21.4,3.9c1.3,0.1,2.6,0.1,3.9,0.2s2.6,0,3.9-0.1c-2.8-9.2-5.1-18.5-6.8-27.8c-1.7-9.3-3.1-19.2-4.1-29.8
		c3.9,0.9,7.7,1.7,11.4,2.2s7.4,1,11.1,1.1c7.9,0.4,15.6-0.1,23.2-1.5c7.6-1.4,15.4-3.5,23.4-6.4c-4.6,15.1-7.9,29.9-9.8,44.5
		c2.1-1.3,4.1-2.7,6.1-4.2C452.9,281.8,455,280.2,457.2,278.5z"/>
</g>
<path class="st2" d="M69.8,171.8c1.6,3.4,3.7,8.2,5.4,14.1c1.6,5.3,5.1,18.3,3.8,34.6c-1.3,16-6.2,27.6-15.5,49.2
	c-2.4,5.6-4.1,9.6-7,15c-7,13.3-15.8,25.5-26.5,36.8c3.4-0.4,6.8-0.7,10.1-1c3.3-0.2,6.6-0.4,9.9-0.4c19.7,0,38.1,3.9,55.3,11.6
	c8.9-25.7,14.1-52.3,15.8-79.8c6.1,12.2,11.1,25,15,38.5c3.9,13.5,6.6,28.1,7.9,43.8c5.1-1.6,10.4-2.9,15.8-3.7s10.5-1.5,15.1-1.9
	c4.7-0.4,8.7-0.6,12-0.7c3.3-0.1,5.5-0.1,6.5-0.1c1.5-14.5,4.4-28,8.4-40.6c4.1-12.6,9-24.7,14.9-36.4c0.7,13.9,2.4,27.6,5.1,41.1
	c2.6,13.5,6.3,26.8,10.9,40c4.3-2,8.4-3.7,12.2-5.1c3.8-1.5,7.6-2.7,11.3-3.6s7.5-1.6,11.4-2.1c3.8-0.5,7.9-0.7,12.1-0.7
	c2.8,0,5.7,0.1,8.8,0.4c3.1,0.2,6.4,0.6,9.8,1c-4.3-4.8-8.7-10.2-13.1-16.4s-8.3-12.9-11.8-20.5s-6.4-15.8-8.5-24.9
	c-2.2-9.1-3.3-19-3.3-29.9c0-5.7,0.4-11.6,1-17.8c0.7-6.1,1.8-12.6,3.3-19.3s3.5-13.7,5.9-20.9c1.4-4,2.9-8.2,4.6-12.5l-87,50.2
	c-2.2,6.1-4.5,12.4-6.9,18.8c-4.3,11.4-8.8,23.7-13.5,37c-2.3-9-4.7-17.7-7.4-26.1c-2.6-8.4-5.4-16.4-8.1-24
	c-0.7-1.9-1.4-3.8-2.1-5.7c-29.2-16.5-58.5-32.9-87.7-49.4"/>
<path class="st1" d="M205.1,210.9l57.6-35.6c-2.1,5.1-4.1,11-5.9,17.8c-1.6,6.5-2.6,12.5-3.2,17.8c-6.3-1.2-14-2.3-22.8-2.4
	C220.8,208.4,212.1,209.5,205.1,210.9z"/>
<path class="st1" d="M137,210.9l-57.6-35.6c2.1,5.1,4.1,11,5.8,17.8c1.6,6.5,2.6,12.5,3.2,17.8c6.3-1.2,14-2.3,22.8-2.4
	C121.3,208.4,130.1,209.5,137,210.9z"/>
<path class="st3" d="M170.6,315.3c1.6-4.7,4.2-10.8,8.6-17.3c3.3-4.9,6.8-8.7,9.9-11.5c-12.3,0-24.7,0-37,0
	c3.1,2.7,6.7,6.5,10.2,11.5C166.8,304.6,169.2,310.8,170.6,315.3z"/>
<g>
	
		<rect x="64.1" y="230.1" transform="matrix(0.3224 -0.9466 0.9466 0.3224 -197.9022 236.9006)" class="st2" width="4.9" height="53.2"/>
	
		<rect x="36.4" y="264.7" transform="matrix(0.9974 -7.160239e-02 7.160239e-02 0.9974 -18.9716 5.1928)" class="st2" width="53.2" height="4.9"/>
</g>
<g>
	
		<rect x="241.4" y="258.5" transform="matrix(0.9466 -0.3224 0.3224 0.9466 -69.8156 100.3219)" class="st2" width="53.2" height="4.9"/>
	
		<rect x="269.1" y="244.9" transform="matrix(7.160239e-02 -0.9974 0.9974 7.160239e-02 -18.6459 522.8917)" class="st2" width="4.9" height="53.2"/>
</g>
<path class="st4" d="M-238,291"/>
</svg>
